<svg width="329" height="276" viewBox="0 0 329 276" fill="none" xmlns="http://www.w3.org/2000/svg">
<g id="successSvg">
<circle id="successcircle" cx="186" cy="117" r="99" stroke="#00FF19" stroke-width="8"/>
<circle id="innerSuccessCircle" cx="185.5" cy="116.5" r="61.5" fill="#D9D9D9" fill-opacity="0.5"/>
<path id="bottomrightstar" d="M154.468 247.368L139.595 241.959C139.467 241.912 139.352 241.839 139.256 241.743C139.161 241.648 139.087 241.533 139.041 241.405L133.632 226.532C133.435 225.992 133.077 225.525 132.607 225.195C132.136 224.866 131.575 224.689 131 224.689C130.425 224.689 129.864 224.866 129.393 225.195C128.922 225.525 128.564 225.992 128.368 226.532L122.959 241.405C122.912 241.533 122.839 241.648 122.743 241.743C122.648 241.839 122.533 241.912 122.405 241.959L107.532 247.368C106.992 247.564 106.525 247.922 106.195 248.393C105.866 248.864 105.689 249.425 105.689 250C105.689 250.575 105.866 251.136 106.195 251.607C106.525 252.077 106.992 252.435 107.532 252.632L122.405 258.041C122.533 258.087 122.648 258.161 122.743 258.256C122.839 258.352 122.912 258.467 122.959 258.595L128.368 273.468C128.564 274.008 128.922 274.475 129.393 274.805C129.864 275.134 130.425 275.311 131 275.311C131.575 275.311 132.136 275.134 132.607 274.805C133.077 274.475 133.435 274.008 133.632 273.468L139.041 258.595C139.087 258.467 139.161 258.352 139.256 258.256C139.352 258.161 139.467 258.087 139.595 258.041L154.468 252.632C155.008 252.435 155.475 252.077 155.805 251.607C156.134 251.136 156.311 250.575 156.311 250C156.311 249.425 156.134 248.864 155.805 248.393C155.475 247.922 155.008 247.564 154.468 247.368ZM153.828 250.884L138.955 256.291C138.57 256.43 138.22 256.653 137.93 256.942C137.641 257.232 137.418 257.581 137.279 257.966L131.872 272.828C131.803 273.003 131.683 273.153 131.527 273.259C131.372 273.364 131.188 273.421 131 273.421C130.812 273.421 130.628 273.364 130.473 273.259C130.317 273.153 130.197 273.003 130.128 272.828L124.721 257.955C124.582 257.57 124.359 257.22 124.07 256.93C123.78 256.641 123.43 256.418 123.045 256.279L108.172 250.872C107.997 250.803 107.847 250.683 107.741 250.527C107.635 250.372 107.579 250.188 107.579 250C107.579 249.812 107.635 249.628 107.741 249.473C107.847 249.317 107.997 249.197 108.172 249.128L123.045 243.721C123.43 243.582 123.78 243.359 124.07 243.07C124.359 242.78 124.582 242.43 124.721 242.045L130.128 227.172C130.197 226.997 130.317 226.847 130.473 226.741C130.628 226.635 130.812 226.579 131 226.579C131.188 226.579 131.372 226.635 131.527 226.741C131.683 226.847 131.803 226.997 131.872 227.172L137.279 242.045C137.418 242.43 137.641 242.78 137.93 243.07C138.22 243.359 138.57 243.582 138.955 243.721L153.828 249.128C154.003 249.197 154.153 249.317 154.259 249.473C154.364 249.628 154.421 249.812 154.421 250C154.421 250.188 154.364 250.372 154.259 250.527C154.153 250.683 154.003 250.803 153.828 250.872V250.884Z" fill="#00FF19"/>
<path id="rightstar" d="M326.577 22.9118L311.951 17.5926C311.826 17.5473 311.713 17.4751 311.619 17.3811C311.525 17.2871 311.453 17.1737 311.407 17.0487L306.088 2.42317C305.895 1.89195 305.543 1.43306 305.08 1.1088C304.617 0.784534 304.065 0.610596 303.5 0.610596C302.935 0.610596 302.383 0.784534 301.92 1.1088C301.457 1.43306 301.105 1.89195 300.912 2.42317L295.593 17.0487C295.547 17.1737 295.475 17.2871 295.381 17.3811C295.287 17.4751 295.174 17.5473 295.049 17.5926L280.423 22.9118C279.892 23.1051 279.433 23.4571 279.109 23.9201C278.785 24.3831 278.611 24.9347 278.611 25.5C278.611 26.0653 278.785 26.6169 279.109 27.0799C279.433 27.5429 279.892 27.8949 280.423 28.0882L295.049 33.4074C295.174 33.4527 295.287 33.5249 295.381 33.6189C295.475 33.7129 295.547 33.8263 295.593 33.9513L300.912 48.5768C301.105 49.1081 301.457 49.5669 301.92 49.8912C302.383 50.2155 302.935 50.3894 303.5 50.3894C304.065 50.3894 304.617 50.2155 305.08 49.8912C305.543 49.5669 305.895 49.1081 306.088 48.5768L311.407 33.9513C311.453 33.8263 311.525 33.7129 311.619 33.6189C311.713 33.5249 311.826 33.4527 311.951 33.4074L326.577 28.0882C327.108 27.8949 327.567 27.5429 327.891 27.0799C328.215 26.6169 328.389 26.0653 328.389 25.5C328.389 24.9347 328.215 24.3831 327.891 23.9201C327.567 23.4571 327.108 23.1051 326.577 22.9118ZM325.948 26.3689L311.322 31.6858C310.944 31.823 310.6 32.0417 310.315 32.3265C310.03 32.6112 309.811 32.9551 309.674 33.3336L304.357 47.9477C304.289 48.1196 304.171 48.2671 304.018 48.3711C303.866 48.4751 303.685 48.5307 303.5 48.5307C303.315 48.5307 303.134 48.4751 302.982 48.3711C302.829 48.2671 302.711 48.1196 302.643 47.9477L297.326 33.3221C297.189 32.9435 296.97 32.5997 296.685 32.315C296.4 32.0302 296.056 31.8115 295.678 31.6743L281.052 26.3573C280.88 26.2894 280.733 26.1713 280.629 26.0184C280.525 25.8655 280.469 25.6849 280.469 25.5C280.469 25.3151 280.525 25.1345 280.629 24.9816C280.733 24.8287 280.88 24.7106 281.052 24.6427L295.678 19.3257C296.056 19.1885 296.4 18.9698 296.685 18.685C296.97 18.4003 297.189 18.0565 297.326 17.6779L302.643 3.05235C302.711 2.8804 302.829 2.73285 302.982 2.62888C303.134 2.52491 303.315 2.46931 303.5 2.46931C303.685 2.46931 303.866 2.52491 304.018 2.62888C304.171 2.73285 304.289 2.8804 304.357 3.05235L309.674 17.6779C309.811 18.0565 310.03 18.4003 310.315 18.685C310.6 18.9698 310.944 19.1885 311.322 19.3257L325.948 24.6427C326.12 24.7106 326.267 24.8287 326.371 24.9816C326.475 25.1345 326.531 25.3151 326.531 25.5C326.531 25.6849 326.475 25.8655 326.371 26.0184C326.267 26.1713 326.12 26.2894 325.948 26.3573V26.3689Z" fill="#00FF19"/>
<path id="bigstar" d="M77.6576 77.3326L54.108 68.7678C53.9068 68.6948 53.7241 68.5785 53.5728 68.4272C53.4215 68.2759 53.3052 68.0932 53.2322 67.892L44.6674 44.3424C44.3562 43.487 43.7894 42.7481 43.0439 42.226C42.2983 41.7039 41.4102 41.4238 40.5 41.4238C39.5898 41.4238 38.7017 41.7039 37.9561 42.226C37.2106 42.7481 36.6438 43.487 36.3326 44.3424L27.7678 67.892C27.6948 68.0932 27.5785 68.2759 27.4272 68.4272C27.2759 68.5785 27.0932 68.6948 26.892 68.7678L3.34237 77.3326C2.48703 77.6438 1.74814 78.2106 1.22602 78.9561C0.703898 79.7017 0.423828 80.5898 0.423828 81.5C0.423828 82.4102 0.703898 83.2983 1.22602 84.0439C1.74814 84.7894 2.48703 85.3562 3.34237 85.6674L26.892 94.2322C27.0932 94.3052 27.2759 94.4215 27.4272 94.5728C27.5785 94.7241 27.6948 94.9068 27.7678 95.108L36.3326 118.658C36.6438 119.513 37.2106 120.252 37.9561 120.774C38.7017 121.296 39.5898 121.576 40.5 121.576C41.4102 121.576 42.2983 121.296 43.0439 120.774C43.7894 120.252 44.3562 119.513 44.6674 118.658L53.2322 95.108C53.3052 94.9068 53.4215 94.7241 53.5728 94.5728C53.7241 94.4215 53.9068 94.3052 54.108 94.2322L77.6576 85.6674C78.513 85.3562 79.2518 84.7894 79.774 84.0439C80.2961 83.2983 80.5761 82.4102 80.5761 81.5C80.5761 80.5898 80.2961 79.7017 79.774 78.9561C79.2518 78.2106 78.513 77.6438 77.6576 77.3326ZM76.6445 82.899L53.0949 91.4601C52.4853 91.6811 51.9317 92.0333 51.4732 92.4918C51.0148 92.9503 50.6626 93.5039 50.4416 94.1135L41.8805 117.645C41.771 117.921 41.5809 118.159 41.3347 118.326C41.0885 118.494 40.7977 118.583 40.5 118.583C40.2023 118.583 39.9115 118.494 39.6653 118.326C39.4191 118.159 39.2289 117.921 39.1195 117.645L30.5584 94.0949C30.3374 93.4853 29.9852 92.9317 29.5267 92.4732C29.0683 92.0148 28.5146 91.6626 27.9051 91.4416L4.35546 82.8805C4.07859 82.771 3.84102 82.5809 3.67361 82.3347C3.5062 82.0885 3.41668 81.7977 3.41668 81.5C3.41668 81.2023 3.5062 80.9115 3.67361 80.6653C3.84102 80.4191 4.07859 80.2289 4.35546 80.1195L27.9051 71.5584C28.5146 71.3374 29.0683 70.9852 29.5267 70.5267C29.9852 70.0683 30.3374 69.5146 30.5584 68.9051L39.1195 45.3555C39.2289 45.0786 39.4191 44.841 39.6653 44.6736C39.9115 44.5062 40.2023 44.4167 40.5 44.4167C40.7977 44.4167 41.0885 44.5062 41.3347 44.6736C41.5809 44.841 41.771 45.0786 41.8805 45.3555L50.4416 68.9051C50.6626 69.5146 51.0148 70.0683 51.4732 70.5267C51.9317 70.9852 52.4853 71.3374 53.0949 71.5584L76.6445 80.1195C76.9214 80.2289 77.159 80.4191 77.3264 80.6653C77.4938 80.9115 77.5833 81.2023 77.5833 81.5C77.5833 81.7977 77.4938 82.0885 77.3264 82.3347C77.159 82.5809 76.9214 82.771 76.6445 82.8805V82.899Z" fill="#00FF19"/>
<path id="successTick" d="M143 121.5L168 146.5L229 87" stroke="#00FF1A" stroke-width="10" stroke-linecap="round"/>
</g>
</svg>
